<svg xmlns="http://www.w3.org/2000/svg" viewBox="0 0 32 32">
  <!-- Tree layers -->
  <polygon points="16,2 8,12 24,12" fill="#228B22"/>
  <polygon points="16,7 6,18 26,18" fill="#2E8B2E"/>
  <polygon points="16,12 4,24 28,24" fill="#3CB371"/>
  <!-- Trunk -->
  <rect x="13" y="24" width="6" height="6" fill="#8B4513"/>
  <!-- Star -->
  <polygon points="16,0 17,3.5 20,3.5 17.5,5.5 18.5,9 16,7 13.5,9 14.5,5.5 12,3.5 15,3.5" fill="#FFD700"/>
  <!-- Ornaments -->
  <circle cx="11" cy="14" r="1.5" fill="#FF0000"/>
  <circle cx="21" cy="14" r="1.5" fill="#FF0000"/>
  <circle cx="16" cy="10" r="1.5" fill="#FFD700"/>
  <circle cx="9" cy="20" r="1.5" fill="#4169E1"/>
  <circle cx="23" cy="20" r="1.5" fill="#4169E1"/>
  <circle cx="16" cy="18" r="1.5" fill="#FF0000"/>
</svg>
